<svg width="24" height="18" viewBox="0 0 24 18" fill="none" xmlns="http://www.w3.org/2000/svg">
<path d="M23.0906 11.4243C23.0228 11.2349 22.9431 11.0501 22.852 10.8708L18.628 1.26091C18.588 1.16835 18.5308 1.08425 18.4594 1.0131C18.1576 0.711227 17.7993 0.471767 17.4049 0.308393C17.0106 0.145019 16.5879 0.0609302 16.161 0.0609302C15.7342 0.0609302 15.3115 0.145019 14.9171 0.308393C14.5228 0.471767 14.1645 0.711227 13.8627 1.0131C13.7108 1.1651 13.6254 1.37106 13.625 1.58591V4.12497H10.375V1.58591C10.3751 1.47918 10.3541 1.37348 10.3134 1.27484C10.2726 1.17621 10.2128 1.08658 10.1373 1.01106C9.83554 0.709195 9.47723 0.469736 9.08288 0.306361C8.68852 0.142987 8.26584 0.0588989 7.83898 0.0588989C7.41213 0.0588989 6.98945 0.142987 6.59509 0.306361C6.20074 0.469736 5.84243 0.709195 5.54063 1.01106C5.46921 1.08222 5.41199 1.16632 5.37203 1.25888L1.14805 10.8687C1.05693 11.048 0.977217 11.2329 0.909375 11.4222C0.670196 12.0915 0.580231 12.8049 0.645782 13.5126C0.711334 14.2202 0.930818 14.905 1.28886 15.5189C1.6469 16.1328 2.13484 16.661 2.71849 17.0665C3.30214 17.472 3.9674 17.745 4.66765 17.8663C5.3679 17.9877 6.08622 17.9544 6.77228 17.769C7.45833 17.5835 8.09554 17.2502 8.63927 16.7926C9.18299 16.3349 9.62008 15.764 9.91991 15.1196C10.2197 14.4753 10.3751 13.7732 10.375 13.0625V5.74997H13.625V13.0625C13.6246 13.7732 13.7797 14.4755 14.0793 15.12C14.379 15.7646 14.8159 16.3358 15.3596 16.7936C15.9032 17.2515 16.5404 17.585 17.2265 17.7707C17.9126 17.9563 18.631 17.9897 19.3314 17.8685C20.0317 17.7473 20.6971 17.4744 21.2809 17.069C21.8647 16.6635 22.3527 16.1353 22.7109 15.5214C23.069 14.9074 23.2886 14.2226 23.3542 13.5148C23.4198 12.8071 23.3298 12.0936 23.0906 11.4243ZM6.79086 2.06833C7.06175 1.84024 7.39973 1.70689 7.75338 1.68856C8.10702 1.67022 8.45698 1.76791 8.75 1.96677V9.43263C8.11564 8.86301 7.34273 8.47011 6.5087 8.29329C5.67467 8.11647 4.80882 8.16193 3.99789 8.42513L6.79086 2.06833ZM5.5 16.3125C4.85721 16.3125 4.22886 16.1219 3.6944 15.7647C3.15994 15.4076 2.74338 14.9001 2.49739 14.3062C2.25141 13.7123 2.18705 13.0589 2.31245 12.4284C2.43785 11.798 2.74738 11.2189 3.2019 10.7644C3.65642 10.3099 4.23552 10.0003 4.86596 9.87492C5.4964 9.74952 6.14986 9.81388 6.74372 10.0599C7.33758 10.3058 7.84516 10.7224 8.20228 11.2569C8.55939 11.7913 8.75 12.4197 8.75 13.0625C8.75 13.9244 8.40759 14.7511 7.7981 15.3606C7.1886 15.9701 6.36195 16.3125 5.5 16.3125ZM15.25 1.96575C15.543 1.7669 15.893 1.66921 16.2466 1.68754C16.6003 1.70587 16.9383 1.83923 17.2091 2.06731L20.0021 8.4231C19.1911 8.16003 18.3252 8.11473 17.4912 8.29173C16.6571 8.46874 15.8843 8.86182 15.25 9.43161V1.96575ZM18.5 16.3125C17.8572 16.3125 17.2289 16.1219 16.6944 15.7647C16.1599 15.4076 15.7434 14.9001 15.4974 14.3062C15.2514 13.7123 15.187 13.0589 15.3124 12.4284C15.4378 11.798 15.7474 11.2189 16.2019 10.7644C16.6564 10.3099 17.2355 10.0003 17.866 9.87492C18.4964 9.74952 19.1499 9.81388 19.7437 10.0599C20.3376 10.3058 20.8452 10.7224 21.2023 11.2569C21.5594 11.7913 21.75 12.4197 21.75 13.0625C21.75 13.9244 21.4076 14.7511 20.7981 15.3606C20.1886 15.9701 19.362 16.3125 18.5 16.3125Z" fill="black"/>
</svg>
