<svg width="18" height="18" viewBox="0 0 18 18" fill="none" xmlns="http://www.w3.org/2000/svg"> 
<g clip-path="url(#clip0_1044_127)">
<path d="M21.0313 16.5226C20.9481 16.4398 20.8354 16.3933 20.718 16.3933C20.6006 16.3933 20.4879 16.4398 20.4047 16.5226C20.3219 16.6058 20.2754 16.7185 20.2754 16.8359C20.2754 16.9533 20.3219 17.066 20.4047 17.1492L22.0891 18.8337H14.0002V11.1803C14.0002 11.0625 13.9534 10.9494 13.87 10.8661C13.7867 10.7827 13.6736 10.7359 13.5558 10.7359C13.4379 10.7359 13.3249 10.7827 13.2415 10.8661C13.1582 10.9494 13.1113 11.0625 13.1113 11.1803V18.8337C13.1113 19.0694 13.205 19.2955 13.3717 19.4622C13.5384 19.6289 13.7645 19.7226 14.0002 19.7226H22.0669L20.4047 21.3892C20.3219 21.4725 20.2754 21.5852 20.2754 21.7026C20.2754 21.82 20.3219 21.9326 20.4047 22.0159C20.4874 22.098 20.5992 22.1443 20.7158 22.1448C20.7743 22.1451 20.8322 22.1339 20.8864 22.1118C20.9405 22.0897 20.9898 22.0571 21.0313 22.0159L23.778 19.2781L21.0313 16.5226Z" fill="#7B7B7B"/>
</g>
<path d="M46.625 11.3129C46.0687 11.3129 45.525 11.4778 45.0625 11.7869C44.5999 12.0959 44.2395 12.5352 44.0266 13.0491C43.8137 13.563 43.758 14.1285 43.8665 14.6741C43.9751 15.2196 44.2429 15.7208 44.6363 16.1141C45.0296 16.5074 45.5307 16.7753 46.0763 16.8838C46.6219 16.9923 47.1874 16.9367 47.7013 16.7238C48.2152 16.5109 48.6545 16.1504 48.9635 15.6879C49.2726 15.2254 49.4375 14.6816 49.4375 14.1254C49.4375 13.3794 49.1412 12.6641 48.6137 12.1366C48.0863 11.6092 47.3709 11.3129 46.625 11.3129ZM46.625 15.8129C46.2912 15.8129 45.965 15.7139 45.6875 15.5285C45.41 15.343 45.1937 15.0795 45.066 14.7711C44.9382 14.4628 44.9048 14.1235 44.9699 13.7962C45.035 13.4688 45.1958 13.1681 45.4318 12.9321C45.6678 12.6961 45.9684 12.5354 46.2958 12.4703C46.6231 12.4052 46.9624 12.4386 47.2708 12.5663C47.5791 12.694 47.8427 12.9103 48.0281 13.1878C48.2135 13.4654 48.3125 13.7916 48.3125 14.1254C48.3125 14.5729 48.1347 15.0021 47.8182 15.3186C47.5018 15.6351 47.0726 15.8129 46.625 15.8129ZM53.375 16.9379C53.9313 16.9379 54.475 16.7729 54.9375 16.4639C55.4001 16.1548 55.7605 15.7156 55.9734 15.2017C56.1863 14.6877 56.242 14.1222 56.1335 13.5767C56.0249 13.0311 55.7571 12.53 55.3637 12.1366C54.9704 11.7433 54.4693 11.4754 53.9237 11.3669C53.3781 11.2584 52.8126 11.3141 52.2987 11.527C51.7848 11.7398 51.3455 12.1003 51.0365 12.5628C50.7275 13.0253 50.5625 13.5691 50.5625 14.1254C50.5625 14.8713 50.8588 15.5867 51.3863 16.1141C51.9137 16.6416 52.6291 16.9379 53.375 16.9379ZM53.375 12.4379C53.7088 12.4379 54.035 12.5368 54.3125 12.7223C54.59 12.9077 54.8063 13.1712 54.934 13.4796C55.0618 13.7879 55.0952 14.1272 55.0301 14.4546C54.965 14.7819 54.8042 15.0826 54.5682 15.3186C54.3322 15.5546 54.0316 15.7153 53.7042 15.7804C53.3769 15.8456 53.0376 15.8121 52.7292 15.6844C52.4209 15.5567 52.1573 15.3404 51.9719 15.0629C51.7865 14.7854 51.6875 14.4591 51.6875 14.1254C51.6875 13.6778 51.8653 13.2486 52.1818 12.9321C52.4982 12.6157 52.9274 12.4379 53.375 12.4379ZM46.625 18.0629C46.0687 18.0629 45.525 18.2278 45.0625 18.5369C44.5999 18.8459 44.2395 19.2852 44.0266 19.7991C43.8137 20.313 43.758 20.8785 43.8665 21.4241C43.9751 21.9696 44.2429 22.4708 44.6363 22.8641C45.0296 23.2574 45.5307 23.5253 46.0763 23.6338C46.6219 23.7423 47.1874 23.6867 47.7013 23.4738C48.2152 23.2609 48.6545 22.9004 48.9635 22.4379C49.2726 21.9754 49.4375 21.4316 49.4375 20.8754C49.4375 20.1294 49.1412 19.4141 48.6137 18.8866C48.0863 18.3592 47.3709 18.0629 46.625 18.0629ZM46.625 22.5629C46.2912 22.5629 45.965 22.4639 45.6875 22.2785C45.41 22.093 45.1937 21.8295 45.066 21.5211C44.9382 21.2128 44.9048 20.8735 44.9699 20.5462C45.035 20.2188 45.1958 19.9181 45.4318 19.6821C45.6678 19.4461 45.9684 19.2854 46.2958 19.2203C46.6231 19.1552 46.9624 19.1886 47.2708 19.3163C47.5791 19.444 47.8427 19.6603 48.0281 19.9378C48.2135 20.2154 48.3125 20.5416 48.3125 20.8754C48.3125 21.3229 48.1347 21.7521 47.8182 22.0686C47.5018 22.3851 47.0726 22.5629 46.625 22.5629ZM53.375 18.0629C52.8187 18.0629 52.275 18.2278 51.8125 18.5369C51.3499 18.8459 50.9895 19.2852 50.7766 19.7991C50.5637 20.313 50.508 20.8785 50.6165 21.4241C50.7251 21.9696 50.9929 22.4708 51.3863 22.8641C51.7796 23.2574 52.2807 23.5253 52.8263 23.6338C53.3719 23.7423 53.9374 23.6867 54.4513 23.4738C54.9652 23.2609 55.4045 22.9004 55.7135 22.4379C56.0226 21.9754 56.1875 21.4316 56.1875 20.8754C56.1875 20.1294 55.8912 19.4141 55.3637 18.8866C54.8363 18.3592 54.1209 18.0629 53.375 18.0629ZM53.375 22.5629C53.0412 22.5629 52.715 22.4639 52.4375 22.2785C52.16 22.093 51.9437 21.8295 51.816 21.5211C51.6882 21.2128 51.6548 20.8735 51.7199 20.5462C51.785 20.2188 51.9458 19.9181 52.1818 19.6821C52.4178 19.4461 52.7184 19.2854 53.0458 19.2203C53.3731 19.1552 53.7124 19.1886 54.0208 19.3163C54.3291 19.444 54.5927 19.6603 54.7781 19.9378C54.9635 20.2154 55.0625 20.5416 55.0625 20.8754C55.0625 21.3229 54.8847 21.7521 54.5682 22.0686C54.2518 22.3851 53.8226 22.5629 53.375 22.5629Z" fill="#404040"/>
<path d="M75.368 22.0004V13.6004H76.1L79.94 20.1524H79.556L83.36 13.6004H84.092V22.0004H83.24V14.9324H83.444L79.94 20.9324H79.52L75.992 14.9324H76.22V22.0004H75.368ZM89.2529 22.0604C88.7169 22.0604 88.2489 21.9604 87.8489 21.7604C87.4489 21.5604 87.1369 21.2604 86.9129 20.8604C86.6969 20.4604 86.5889 19.9604 86.5889 19.3604V15.7004H87.4409V19.2644C87.4409 19.9364 87.6049 20.4444 87.9329 20.7884C88.2689 21.1244 88.7369 21.2924 89.3369 21.2924C89.7769 21.2924 90.1569 21.2044 90.4769 21.0284C90.8049 20.8444 91.0529 20.5804 91.2209 20.2364C91.3969 19.8924 91.4849 19.4804 91.4849 19.0004V15.7004H92.3369V22.0004H91.5209V20.2724L91.6529 20.5844C91.4529 21.0484 91.1409 21.4124 90.7169 21.6764C90.3009 21.9324 89.8129 22.0604 89.2529 22.0604ZM97.3874 22.0604C96.7314 22.0604 96.1554 21.9244 95.6594 21.6524C95.1634 21.3724 94.7754 20.9924 94.4954 20.5124C94.2154 20.0244 94.0754 19.4684 94.0754 18.8444C94.0754 18.2204 94.2074 17.6684 94.4714 17.1884C94.7434 16.7084 95.1114 16.3324 95.5754 16.0604C96.0474 15.7804 96.5754 15.6404 97.1594 15.6404C97.7514 15.6404 98.2754 15.7764 98.7314 16.0484C99.1954 16.3124 99.5594 16.6884 99.8234 17.1764C100.087 17.6564 100.219 18.2124 100.219 18.8444C100.219 18.8844 100.215 18.9284 100.207 18.9764C100.207 19.0164 100.207 19.0604 100.207 19.1084H94.7234V18.4724H99.7514L99.4154 18.7244C99.4154 18.2684 99.3154 17.8644 99.1154 17.5124C98.9234 17.1524 98.6594 16.8724 98.3234 16.6724C97.9874 16.4724 97.5994 16.3724 97.1594 16.3724C96.7274 16.3724 96.3394 16.4724 95.9954 16.6724C95.6514 16.8724 95.3834 17.1524 95.1914 17.5124C94.9994 17.8724 94.9034 18.2844 94.9034 18.7484V18.8804C94.9034 19.3604 95.0074 19.7844 95.2154 20.1524C95.4314 20.5124 95.7274 20.7964 96.1034 21.0044C96.4874 21.2044 96.9234 21.3044 97.4114 21.3044C97.7954 21.3044 98.1514 21.2364 98.4794 21.1004C98.8154 20.9644 99.1034 20.7564 99.3434 20.4764L99.8234 21.0284C99.5434 21.3644 99.1914 21.6204 98.7674 21.7964C98.3514 21.9724 97.8914 22.0604 97.3874 22.0604ZM105.206 22.0604C104.654 22.0604 104.158 21.9364 103.718 21.6884C103.278 21.4324 102.93 21.0644 102.674 20.5844C102.418 20.1044 102.29 19.5244 102.29 18.8444C102.29 18.1564 102.418 17.5764 102.674 17.1044C102.938 16.6244 103.29 16.2604 103.73 16.0124C104.17 15.7644 104.662 15.6404 105.206 15.6404C105.806 15.6404 106.342 15.7764 106.814 16.0484C107.294 16.3124 107.67 16.6844 107.942 17.1644C108.214 17.6444 108.35 18.2044 108.35 18.8444C108.35 19.4764 108.214 20.0364 107.942 20.5244C107.67 21.0044 107.294 21.3804 106.814 21.6524C106.342 21.9244 105.806 22.0604 105.206 22.0604ZM101.954 22.0004V13.0964H102.806V17.5604L102.686 18.8324L102.77 20.1044V22.0004H101.954ZM105.146 21.3044C105.594 21.3044 105.994 21.2044 106.346 21.0044C106.698 20.7964 106.978 20.5084 107.186 20.1404C107.394 19.7644 107.498 19.3324 107.498 18.8444C107.498 18.3484 107.394 17.9164 107.186 17.5484C106.978 17.1804 106.698 16.8964 106.346 16.6964C105.994 16.4884 105.594 16.3844 105.146 16.3844C104.698 16.3844 104.294 16.4884 103.934 16.6964C103.582 16.8964 103.302 17.1804 103.094 17.5484C102.894 17.9164 102.794 18.3484 102.794 18.8444C102.794 19.3324 102.894 19.7644 103.094 20.1404C103.302 20.5084 103.582 20.7964 103.934 21.0044C104.294 21.2044 104.698 21.3044 105.146 21.3044ZM110.086 22.0004V13.0964H110.938V22.0004H110.086ZM115.985 22.0604C115.329 22.0604 114.753 21.9244 114.257 21.6524C113.761 21.3724 113.373 20.9924 113.093 20.5124C112.813 20.0244 112.673 19.4684 112.673 18.8444C112.673 18.2204 112.805 17.6684 113.069 17.1884C113.341 16.7084 113.709 16.3324 114.173 16.0604C114.645 15.7804 115.173 15.6404 115.757 15.6404C116.349 15.6404 116.873 15.7764 117.329 16.0484C117.793 16.3124 118.157 16.6884 118.421 17.1764C118.685 17.6564 118.817 18.2124 118.817 18.8444C118.817 18.8844 118.813 18.9284 118.805 18.9764C118.805 19.0164 118.805 19.0604 118.805 19.1084H113.321V18.4724H118.349L118.013 18.7244C118.013 18.2684 117.913 17.8644 117.713 17.5124C117.521 17.1524 117.257 16.8724 116.921 16.6724C116.585 16.4724 116.197 16.3724 115.757 16.3724C115.325 16.3724 114.937 16.4724 114.593 16.6724C114.249 16.8724 113.981 17.1524 113.789 17.5124C113.597 17.8724 113.501 18.2844 113.501 18.7484V18.8804C113.501 19.3604 113.605 19.7844 113.813 20.1524C114.029 20.5124 114.325 20.7964 114.701 21.0044C115.085 21.2044 115.521 21.3044 116.009 21.3044C116.393 21.3044 116.749 21.2364 117.077 21.1004C117.413 20.9644 117.701 20.7564 117.941 20.4764L118.421 21.0284C118.141 21.3644 117.789 21.6204 117.365 21.7964C116.949 21.9724 116.489 22.0604 115.985 22.0604ZM122.243 22.0604C121.723 22.0604 121.231 21.9884 120.767 21.8444C120.303 21.6924 119.939 21.5044 119.675 21.2804L120.059 20.6084C120.315 20.8004 120.643 20.9684 121.043 21.1124C121.443 21.2484 121.863 21.3164 122.303 21.3164C122.903 21.3164 123.335 21.2244 123.599 21.0404C123.863 20.8484 123.995 20.5964 123.995 20.2844C123.995 20.0524 123.919 19.8724 123.767 19.7444C123.623 19.6084 123.431 19.5084 123.191 19.4444C122.951 19.3724 122.683 19.3124 122.387 19.2644C122.091 19.2164 121.795 19.1604 121.499 19.0964C121.211 19.0324 120.947 18.9404 120.707 18.8204C120.467 18.6924 120.271 18.5204 120.119 18.3044C119.975 18.0884 119.903 17.8004 119.903 17.4404C119.903 17.0964 119.999 16.7884 120.191 16.5164C120.383 16.2444 120.663 16.0324 121.031 15.8804C121.407 15.7204 121.863 15.6404 122.399 15.6404C122.807 15.6404 123.215 15.6964 123.623 15.8084C124.031 15.9124 124.367 16.0524 124.631 16.2284L124.259 16.9124C123.979 16.7204 123.679 16.5844 123.359 16.5044C123.039 16.4164 122.719 16.3724 122.399 16.3724C121.831 16.3724 121.411 16.4724 121.139 16.6724C120.875 16.8644 120.743 17.1124 120.743 17.4164C120.743 17.6564 120.815 17.8444 120.959 17.9804C121.111 18.1164 121.307 18.2244 121.547 18.3044C121.795 18.3764 122.063 18.4364 122.351 18.4844C122.647 18.5324 122.939 18.5924 123.227 18.6644C123.523 18.7284 123.791 18.8204 124.031 18.9404C124.279 19.0524 124.475 19.2164 124.619 19.4324C124.771 19.6404 124.847 19.9164 124.847 20.2604C124.847 20.6284 124.743 20.9484 124.535 21.2204C124.335 21.4844 124.039 21.6924 123.647 21.8444C123.263 21.9884 122.795 22.0604 122.243 22.0604ZM132.059 22.0604C131.459 22.0604 130.919 21.9244 130.439 21.6524C129.967 21.3804 129.595 21.0044 129.323 20.5244C129.051 20.0364 128.915 19.4764 128.915 18.8444C128.915 18.2044 129.051 17.6444 129.323 17.1644C129.595 16.6844 129.967 16.3124 130.439 16.0484C130.919 15.7764 131.459 15.6404 132.059 15.6404C132.611 15.6404 133.103 15.7644 133.535 16.0124C133.975 16.2604 134.323 16.6244 134.579 17.1044C134.843 17.5764 134.975 18.1564 134.975 18.8444C134.975 19.5244 134.847 20.1044 134.591 20.5844C134.335 21.0644 133.987 21.4324 133.547 21.6884C133.115 21.9364 132.619 22.0604 132.059 22.0604ZM132.119 21.3044C132.567 21.3044 132.967 21.2044 133.319 21.0044C133.679 20.7964 133.959 20.5084 134.159 20.1404C134.367 19.7644 134.471 19.3324 134.471 18.8444C134.471 18.3484 134.367 17.9164 134.159 17.5484C133.959 17.1804 133.679 16.8964 133.319 16.6964C132.967 16.4884 132.567 16.3844 132.119 16.3844C131.679 16.3844 131.283 16.4884 130.931 16.6964C130.579 16.8964 130.299 17.1804 130.091 17.5484C129.883 17.9164 129.779 18.3484 129.779 18.8444C129.779 19.3324 129.883 19.7644 130.091 20.1404C130.299 20.5084 130.579 20.7964 130.931 21.0044C131.283 21.2044 131.679 21.3044 132.119 21.3044ZM134.495 22.0004V20.1044L134.579 18.8324L134.459 17.5604V13.0964H135.311V22.0004H134.495ZM140.36 22.0604C139.704 22.0604 139.128 21.9244 138.632 21.6524C138.136 21.3724 137.748 20.9924 137.468 20.5124C137.188 20.0244 137.048 19.4684 137.048 18.8444C137.048 18.2204 137.18 17.6684 137.444 17.1884C137.716 16.7084 138.084 16.3324 138.548 16.0604C139.02 15.7804 139.548 15.6404 140.132 15.6404C140.724 15.6404 141.248 15.7764 141.704 16.0484C142.168 16.3124 142.532 16.6884 142.796 17.1764C143.06 17.6564 143.192 18.2124 143.192 18.8444C143.192 18.8844 143.188 18.9284 143.18 18.9764C143.18 19.0164 143.18 19.0604 143.18 19.1084H137.696V18.4724H142.724L142.388 18.7244C142.388 18.2684 142.288 17.8644 142.088 17.5124C141.896 17.1524 141.632 16.8724 141.296 16.6724C140.96 16.4724 140.572 16.3724 140.132 16.3724C139.7 16.3724 139.312 16.4724 138.968 16.6724C138.624 16.8724 138.356 17.1524 138.164 17.5124C137.972 17.8724 137.876 18.2844 137.876 18.7484V18.8804C137.876 19.3604 137.98 19.7844 138.188 20.1524C138.404 20.5124 138.7 20.7964 139.076 21.0044C139.46 21.2044 139.896 21.3044 140.384 21.3044C140.768 21.3044 141.124 21.2364 141.452 21.1004C141.788 20.9644 142.076 20.7564 142.316 20.4764L142.796 21.0284C142.516 21.3644 142.164 21.6204 141.74 21.7964C141.324 21.9724 140.864 22.0604 140.36 22.0604ZM149.759 22.0604C149.239 22.0604 148.747 21.9884 148.283 21.8444C147.819 21.6924 147.455 21.5044 147.191 21.2804L147.575 20.6084C147.831 20.8004 148.159 20.9684 148.559 21.1124C148.959 21.2484 149.379 21.3164 149.819 21.3164C150.419 21.3164 150.851 21.2244 151.115 21.0404C151.379 20.8484 151.511 20.5964 151.511 20.2844C151.511 20.0524 151.435 19.8724 151.283 19.7444C151.139 19.6084 150.947 19.5084 150.707 19.4444C150.467 19.3724 150.199 19.3124 149.903 19.2644C149.607 19.2164 149.311 19.1604 149.015 19.0964C148.727 19.0324 148.463 18.9404 148.223 18.8204C147.983 18.6924 147.787 18.5204 147.635 18.3044C147.491 18.0884 147.419 17.8004 147.419 17.4404C147.419 17.0964 147.515 16.7884 147.707 16.5164C147.899 16.2444 148.179 16.0324 148.547 15.8804C148.923 15.7204 149.379 15.6404 149.915 15.6404C150.323 15.6404 150.731 15.6964 151.139 15.8084C151.547 15.9124 151.883 16.0524 152.147 16.2284L151.775 16.9124C151.495 16.7204 151.195 16.5844 150.875 16.5044C150.555 16.4164 150.235 16.3724 149.915 16.3724C149.347 16.3724 148.927 16.4724 148.655 16.6724C148.391 16.8644 148.259 17.1124 148.259 17.4164C148.259 17.6564 148.331 17.8444 148.475 17.9804C148.627 18.1164 148.823 18.2244 149.063 18.3044C149.311 18.3764 149.579 18.4364 149.867 18.4844C150.163 18.5324 150.455 18.5924 150.743 18.6644C151.039 18.7284 151.307 18.8204 151.547 18.9404C151.795 19.0524 151.991 19.2164 152.135 19.4324C152.287 19.6404 152.363 19.9164 152.363 20.2604C152.363 20.6284 152.259 20.9484 152.051 21.2204C151.851 21.4844 151.555 21.6924 151.163 21.8444C150.779 21.9884 150.311 22.0604 149.759 22.0604ZM157.874 22.0004V20.6084L157.838 20.3804V18.0524C157.838 17.5164 157.686 17.1044 157.382 16.8164C157.086 16.5284 156.642 16.3844 156.05 16.3844C155.642 16.3844 155.254 16.4524 154.886 16.5884C154.518 16.7244 154.206 16.9044 153.95 17.1284L153.566 16.4924C153.886 16.2204 154.27 16.0124 154.718 15.8684C155.166 15.7164 155.638 15.6404 156.134 15.6404C156.95 15.6404 157.578 15.8444 158.018 16.2524C158.466 16.6524 158.69 17.2644 158.69 18.0884V22.0004H157.874ZM155.702 22.0604C155.23 22.0604 154.818 21.9844 154.466 21.8324C154.122 21.6724 153.858 21.4564 153.674 21.1844C153.49 20.9044 153.398 20.5844 153.398 20.2244C153.398 19.8964 153.474 19.6004 153.626 19.3364C153.786 19.0644 154.042 18.8484 154.394 18.6884C154.754 18.5204 155.234 18.4364 155.834 18.4364H158.006V19.0724H155.858C155.25 19.0724 154.826 19.1804 154.586 19.3964C154.354 19.6124 154.238 19.8804 154.238 20.2004C154.238 20.5604 154.378 20.8484 154.658 21.0644C154.938 21.2804 155.33 21.3884 155.834 21.3884C156.314 21.3884 156.726 21.2804 157.07 21.0644C157.422 20.8404 157.678 20.5204 157.838 20.1044L158.03 20.6924C157.87 21.1084 157.59 21.4404 157.19 21.6884C156.798 21.9364 156.302 22.0604 155.702 22.0604ZM161.004 22.0004V13.0964H161.856V22.0004H161.004ZM168.175 22.0004V20.6084L168.139 20.3804V18.0524C168.139 17.5164 167.987 17.1044 167.683 16.8164C167.387 16.5284 166.943 16.3844 166.351 16.3844C165.943 16.3844 165.555 16.4524 165.187 16.5884C164.819 16.7244 164.507 16.9044 164.251 17.1284L163.867 16.4924C164.187 16.2204 164.571 16.0124 165.019 15.8684C165.467 15.7164 165.939 15.6404 166.435 15.6404C167.251 15.6404 167.879 15.8444 168.319 16.2524C168.767 16.6524 168.991 17.2644 168.991 18.0884V22.0004H168.175ZM166.003 22.0604C165.531 22.0604 165.119 21.9844 164.767 21.8324C164.423 21.6724 164.159 21.4564 163.975 21.1844C163.791 20.9044 163.699 20.5844 163.699 20.2244C163.699 19.8964 163.775 19.6004 163.927 19.3364C164.087 19.0644 164.343 18.8484 164.695 18.6884C165.055 18.5204 165.535 18.4364 166.135 18.4364H168.307V19.0724H166.159C165.551 19.0724 165.127 19.1804 164.887 19.3964C164.655 19.6124 164.539 19.8804 164.539 20.2004C164.539 20.5604 164.679 20.8484 164.959 21.0644C165.239 21.2804 165.631 21.3884 166.135 21.3884C166.615 21.3884 167.027 21.2804 167.371 21.0644C167.723 20.8404 167.979 20.5204 168.139 20.1044L168.331 20.6924C168.171 21.1084 167.891 21.4404 167.491 21.6884C167.099 21.9364 166.603 22.0604 166.003 22.0604Z" fill="#404040"/>
<defs>
<clipPath id="clip0_1044_127">
<rect width="16" height="16" fill="white" transform="translate(10 9.50037)"/>
</clipPath>
</defs>
</svg>
