<svg width="18" height="18" viewBox="0 0 18 18" fill="none" xmlns="http://www.w3.org/2000/svg"> 
<path d="M5.625 3.31287C5.06874 3.31287 4.52497 3.47782 4.06246 3.78686C3.59995 4.0959 3.23946 4.53515 3.02659 5.04907C2.81372 5.56299 2.75802 6.12849 2.86654 6.67406C2.97506 7.21963 3.24293 7.72077 3.63626 8.11411C4.0296 8.50744 4.53074 8.77531 5.07631 8.88383C5.62188 8.99235 6.18738 8.93665 6.7013 8.72378C7.21522 8.51091 7.65447 8.15042 7.96351 7.68791C8.27255 7.2254 8.4375 6.68163 8.4375 6.12537C8.4375 5.37945 8.14118 4.66408 7.61374 4.13663C7.08629 3.60918 6.37092 3.31287 5.625 3.31287ZM5.625 7.81287C5.29125 7.81287 4.96498 7.7139 4.68748 7.52847C4.40997 7.34305 4.19368 7.0795 4.06595 6.77115C3.93823 6.4628 3.90481 6.1235 3.96993 5.79615C4.03504 5.46881 4.19576 5.16813 4.43176 4.93212C4.66776 4.69612 4.96844 4.5354 5.29579 4.47029C5.62313 4.40518 5.96243 4.4386 6.27078 4.56632C6.57913 4.69404 6.84268 4.91033 7.02811 5.18784C7.21353 5.46535 7.3125 5.79161 7.3125 6.12537C7.3125 6.57292 7.13471 7.00214 6.81824 7.31861C6.50178 7.63508 6.07255 7.81287 5.625 7.81287ZM12.375 8.93787C12.9313 8.93787 13.475 8.77292 13.9375 8.46388C14.4001 8.15483 14.7605 7.71558 14.9734 7.20166C15.1863 6.68775 15.242 6.12225 15.1335 5.57668C15.0249 5.0311 14.7571 4.52996 14.3637 4.13663C13.9704 3.74329 13.4693 3.47543 12.9237 3.36691C12.3781 3.25839 11.8126 3.31408 11.2987 3.52696C10.7848 3.73983 10.3455 4.10031 10.0365 4.56283C9.72745 5.02534 9.5625 5.56911 9.5625 6.12537C9.5625 6.87129 9.85882 7.58666 10.3863 8.11411C10.9137 8.64155 11.6291 8.93787 12.375 8.93787ZM12.375 4.43787C12.7088 4.43787 13.035 4.53684 13.3125 4.72226C13.59 4.90769 13.8063 5.17124 13.934 5.47959C14.0618 5.78794 14.0952 6.12724 14.0301 6.45458C13.965 6.78193 13.8042 7.08261 13.5682 7.31861C13.3322 7.55461 13.0316 7.71533 12.7042 7.78044C12.3769 7.84556 12.0376 7.81214 11.7292 7.68441C11.4209 7.55669 11.1573 7.3404 10.9719 7.06289C10.7865 6.78538 10.6875 6.45912 10.6875 6.12537C10.6875 5.67781 10.8653 5.24859 11.1818 4.93212C11.4982 4.61566 11.9274 4.43787 12.375 4.43787ZM5.625 10.0629C5.06874 10.0629 4.52497 10.2278 4.06246 10.5369C3.59995 10.8459 3.23946 11.2852 3.02659 11.7991C2.81372 12.313 2.75802 12.8785 2.86654 13.4241C2.97506 13.9696 3.24293 14.4708 3.63626 14.8641C4.0296 15.2574 4.53074 15.5253 5.07631 15.6338C5.62188 15.7423 6.18738 15.6867 6.7013 15.4738C7.21522 15.2609 7.65447 14.9004 7.96351 14.4379C8.27255 13.9754 8.4375 13.4316 8.4375 12.8754C8.4375 12.1294 8.14118 11.4141 7.61374 10.8866C7.08629 10.3592 6.37092 10.0629 5.625 10.0629ZM5.625 14.5629C5.29125 14.5629 4.96498 14.4639 4.68748 14.2785C4.40997 14.093 4.19368 13.8295 4.06595 13.5211C3.93823 13.2128 3.90481 12.8735 3.96993 12.5462C4.03504 12.2188 4.19576 11.9181 4.43176 11.6821C4.66776 11.4461 4.96844 11.2854 5.29579 11.2203C5.62313 11.1552 5.96243 11.1886 6.27078 11.3163C6.57913 11.444 6.84268 11.6603 7.02811 11.9378C7.21353 12.2154 7.3125 12.5416 7.3125 12.8754C7.3125 13.3229 7.13471 13.7521 6.81824 14.0686C6.50178 14.3851 6.07255 14.5629 5.625 14.5629ZM12.375 10.0629C11.8187 10.0629 11.275 10.2278 10.8125 10.5369C10.3499 10.8459 9.98946 11.2852 9.77659 11.7991C9.56372 12.313 9.50802 12.8785 9.61654 13.4241C9.72506 13.9696 9.99293 14.4708 10.3863 14.8641C10.7796 15.2574 11.2807 15.5253 11.8263 15.6338C12.3719 15.7423 12.9374 15.6867 13.4513 15.4738C13.9652 15.2609 14.4045 14.9004 14.7135 14.4379C15.0226 13.9754 15.1875 13.4316 15.1875 12.8754C15.1875 12.1294 14.8912 11.4141 14.3637 10.8866C13.8363 10.3592 13.1209 10.0629 12.375 10.0629ZM12.375 14.5629C12.0412 14.5629 11.715 14.4639 11.4375 14.2785C11.16 14.093 10.9437 13.8295 10.816 13.5211C10.6882 13.2128 10.6548 12.8735 10.7199 12.5462C10.785 12.2188 10.9458 11.9181 11.1818 11.6821C11.4178 11.4461 11.7184 11.2854 12.0458 11.2203C12.3731 11.1552 12.7124 11.1886 13.0208 11.3163C13.3291 11.444 13.5927 11.6603 13.7781 11.9378C13.9635 12.2154 14.0625 12.5416 14.0625 12.8754C14.0625 13.3229 13.8847 13.7521 13.5682 14.0686C13.2518 14.3851 12.8226 14.5629 12.375 14.5629Z" fill="#404040"/>
</svg>
