<svg width="18" height="18" viewBox="0 0 18 18" fill="none" xmlns="http://www.w3.org/2000/svg">
<path d="M15.1875 3.375H12.6562V2.53125C12.6562 2.00911 12.4488 1.50835 12.0796 1.13913C11.7104 0.769921 11.2096 0.5625 10.6875 0.5625H7.3125C6.79036 0.5625 6.2896 0.769921 5.92038 1.13913C5.55117 1.50835 5.34375 2.00911 5.34375 2.53125V3.375H2.8125C2.58872 3.375 2.37411 3.46389 2.21588 3.62213C2.05764 3.78036 1.96875 3.99497 1.96875 4.21875C1.96875 4.44253 2.05764 4.65714 2.21588 4.81537C2.37411 4.97361 2.58872 5.0625 2.8125 5.0625H3.09375V14.625C3.09375 14.998 3.24191 15.3556 3.50563 15.6194C3.76935 15.8831 4.12704 16.0312 4.5 16.0312H13.5C13.873 16.0312 14.2306 15.8831 14.4944 15.6194C14.7581 15.3556 14.9062 14.998 14.9062 14.625V5.0625H15.1875C15.4113 5.0625 15.6259 4.97361 15.7841 4.81537C15.9424 4.65714 16.0312 4.44253 16.0312 4.21875C16.0312 3.99497 15.9424 3.78036 15.7841 3.62213C15.6259 3.46389 15.4113 3.375 15.1875 3.375ZM7.03125 2.53125C7.03125 2.45666 7.06088 2.38512 7.11363 2.33238C7.16637 2.27963 7.23791 2.25 7.3125 2.25H10.6875C10.7621 2.25 10.8336 2.27963 10.8864 2.33238C10.9391 2.38512 10.9688 2.45666 10.9688 2.53125V3.375H7.03125V2.53125ZM13.2188 14.3438H4.78125V5.0625H13.2188V14.3438ZM8.15625 7.3125V11.8125C8.15625 12.0363 8.06736 12.2509 7.90912 12.4091C7.75089 12.5674 7.53628 12.6562 7.3125 12.6562C7.08872 12.6562 6.87411 12.5674 6.71588 12.4091C6.55764 12.2509 6.46875 12.0363 6.46875 11.8125V7.3125C6.46875 7.08872 6.55764 6.87411 6.71588 6.71588C6.87411 6.55764 7.08872 6.46875 7.3125 6.46875C7.53628 6.46875 7.75089 6.55764 7.90912 6.71588C8.06736 6.87411 8.15625 7.08872 8.15625 7.3125ZM11.5312 7.3125V11.8125C11.5312 12.0363 11.4424 12.2509 11.2841 12.4091C11.1259 12.5674 10.9113 12.6562 10.6875 12.6562C10.4637 12.6562 10.2491 12.5674 10.0909 12.4091C9.93265 12.2509 9.84375 12.0363 9.84375 11.8125V7.3125C9.84375 7.08872 9.93265 6.87411 10.0909 6.71588C10.2491 6.55764 10.4637 6.46875 10.6875 6.46875C10.9113 6.46875 11.1259 6.55764 11.2841 6.71588C11.4424 6.87411 11.5312 7.08872 11.5312 7.3125Z" fill="#FF6A00"/>
</svg>
