<svg width="18" height="18" viewBox="0 0 18 18" fill="none" xmlns="http://www.w3.org/2000/svg">
<path d="M20.0447 5.59286C19.9122 5.40905 19.7378 5.25943 19.5359 5.15634C19.3341 5.05326 19.1107 4.99967 18.884 5H17.4554V3.57143C17.4554 3.19255 17.3049 2.82919 17.037 2.56128C16.7691 2.29337 16.4058 2.14286 16.0269 2.14286H9.83666L7.36075 0.285714C7.11305 0.101056 6.81256 0.000892875 6.5036 0H1.74108C1.3622 0 0.998832 0.15051 0.730921 0.418419C0.463011 0.686328 0.3125 1.04969 0.3125 1.42857V14.2857C0.3125 14.4752 0.387755 14.6568 0.521711 14.7908C0.655666 14.9247 0.837348 15 1.02679 15H17.0179C17.1679 15 17.314 14.9528 17.4356 14.8652C17.5573 14.7775 17.6482 14.6538 17.6956 14.5116L20.2394 6.88036C20.3109 6.66563 20.3306 6.43701 20.2967 6.21322C20.2629 5.98944 20.1766 5.77684 20.0447 5.59286ZM6.5036 1.42857L8.97951 3.28571C9.22715 3.47049 9.52768 3.57066 9.83666 3.57143H16.0269V5H4.39913C4.09928 4.99998 3.80703 5.0943 3.56377 5.26961C3.32052 5.44492 3.13859 5.69233 3.04376 5.97679L1.74108 9.88393V1.42857H6.5036Z" fill="black"/>
</svg>
