<svg width="18" height="18" viewBox="0 0 18 18" fill="none" xmlns="http://www.w3.org/2000/svg">
<path d="M16.3636 2.73082H9.14574L6.81818 0.403261C6.69196 0.276161 6.54176 0.175382 6.37629 0.106767C6.21083 0.0381526 6.03339 0.00306696 5.85426 0.00354486H1.36364C1.00198 0.00354486 0.655131 0.147213 0.3994 0.402945C0.143668 0.658676 0 1.00552 0 1.36718V13.6927C0.000676382 14.0403 0.139112 14.3735 0.384971 14.6192C0.630831 14.8649 0.964063 15.0031 1.31165 15.0035H16.4395C16.7809 15.0031 17.1082 14.8673 17.3496 14.6259C17.591 14.3845 17.7268 14.0572 17.7273 13.7158V4.09445C17.7273 3.7328 17.5836 3.38595 17.3279 3.13022C17.0721 2.87449 16.7253 2.73082 16.3636 2.73082ZM1.36364 1.36718H5.85426L7.2179 2.73082H1.36364V1.36718Z" fill="#7B7B7B"/>
</svg>
