<svg width="423" height="566" viewBox="0 0 423 566" fill="none" xmlns="http://www.w3.org/2000/svg">
<rect x="17.5" y="65.5" width="388" height="483" rx="32.5" fill="white" stroke="#D9D9D9" stroke-width="35"/>
<path d="M107 45C107 39.4771 111.477 35 117 35H143.5L165 0H256.5L277.5 35H306C311.523 35 316 39.4772 316 45V86C316 91.5229 311.523 96 306 96H117C111.477 96 107 91.5229 107 86V45Z" fill="#D9D9D9"/>
<rect x="51" y="465" width="320" height="25" rx="12.5" fill="#D9D9D9"/>
<rect x="104" y="403" width="216" height="25" rx="12.5" fill="#D9D9D9"/>
<path d="M283.64 286.469C283.625 299.555 278.419 312.101 269.166 321.354C259.913 330.608 247.367 335.813 234.28 335.828H222.89V347.219C222.89 350.24 221.69 353.137 219.553 355.273C217.417 357.409 214.52 358.609 211.499 358.609C208.478 358.609 205.581 357.409 203.445 355.273C201.308 353.137 200.108 350.24 200.108 347.219V335.828H188.718C175.631 335.813 163.085 330.608 153.832 321.354C144.579 312.101 139.373 299.555 139.358 286.469C139.358 283.448 140.558 280.551 142.695 278.414C144.831 276.278 147.728 275.078 150.749 275.078C153.77 275.078 156.667 276.278 158.803 278.414C160.94 280.551 162.14 283.448 162.14 286.469C162.14 293.518 164.94 300.278 169.924 305.262C174.909 310.247 181.669 313.047 188.718 313.047H234.28C241.329 313.047 248.089 310.247 253.074 305.262C258.058 300.278 260.858 293.518 260.858 286.469C260.858 279.42 258.058 272.66 253.074 267.675C248.089 262.691 241.329 259.891 234.28 259.891H196.312C183.221 259.891 170.666 254.69 161.409 245.434C152.152 236.177 146.952 223.622 146.952 210.531C146.952 197.44 152.152 184.886 161.409 175.629C170.666 166.372 183.221 161.172 196.312 161.172H200.108V149.781C200.108 146.76 201.308 143.863 203.445 141.727C205.581 139.591 208.478 138.391 211.499 138.391C214.52 138.391 217.417 139.591 219.553 141.727C221.69 143.863 222.89 146.76 222.89 149.781V161.172H226.687C239.773 161.187 252.319 166.392 261.572 175.646C270.826 184.899 276.031 197.445 276.046 210.531C276.046 213.552 274.846 216.449 272.71 218.586C270.574 220.722 267.676 221.922 264.655 221.922C261.634 221.922 258.737 220.722 256.601 218.586C254.465 216.449 253.265 213.552 253.265 210.531C253.265 203.482 250.464 196.722 245.48 191.738C240.496 186.753 233.735 183.953 226.687 183.953H196.312C189.263 183.953 182.502 186.753 177.518 191.738C172.534 196.722 169.733 203.482 169.733 210.531C169.733 217.58 172.534 224.34 177.518 229.325C182.502 234.309 189.263 237.109 196.312 237.109H234.28C247.367 237.124 259.913 242.33 269.166 251.583C278.419 260.836 283.625 273.382 283.64 286.469Z" fill="#D9D9D9"/>
</svg>
