<svg width="18" height="18" viewBox="0 0 18 18" fill="none" xmlns="http://www.w3.org/2000/svg"> 
    <rect x="7.72968" y="28.9311" width="171.378" height="213.339" rx="14.3551" fill="white" stroke="#FF8686" stroke-width="15.4594" />
    <path
        d="M47.2617 19.8763C47.2617 17.4369 49.2393 15.4594 51.6787 15.4594H63.3836L72.8801 0H113.295L122.571 15.4594H135.159C137.599 15.4594 139.576 17.4369 139.576 19.8763V37.9859C139.576 40.4253 137.599 42.4028 135.159 42.4028H51.6787C49.2393 42.4028 47.2617 40.4253 47.2617 37.9859V19.8763Z"
        fill="#FF8686" />
    <rect x="22.5269" y="205.389" width="141.343" height="11.0424" rx="5.5212" fill="#FF8686" />
    <rect x="45.9365" y="178.003" width="95.4064" height="11.0424" rx="5.5212" fill="#FF8686" />
    <path
        d="M125.283 126.532C125.276 132.312 122.977 137.854 118.89 141.941C114.803 146.028 109.261 148.327 103.481 148.334H98.4501V153.365C98.4501 154.699 97.92 155.979 96.9765 156.923C96.033 157.866 94.7533 158.396 93.4189 158.396C92.0846 158.396 90.8049 157.866 89.8613 156.923C88.9178 155.979 88.3877 154.699 88.3877 153.365V148.334H83.3565C77.5764 148.327 72.0348 146.028 67.9477 141.941C63.8605 137.854 61.5613 132.312 61.5547 126.532C61.5547 125.198 62.0848 123.918 63.0283 122.974C63.9718 122.031 65.2515 121.501 66.5859 121.501C67.9202 121.501 69.1999 122.031 70.1435 122.974C71.087 123.918 71.6171 125.198 71.6171 126.532C71.6171 129.645 72.8539 132.631 75.0555 134.833C77.2571 137.035 80.243 138.271 83.3565 138.271H103.481C106.595 138.271 109.581 137.035 111.782 134.833C113.984 132.631 115.221 129.645 115.221 126.532C115.221 123.418 113.984 120.433 111.782 118.231C109.581 116.029 106.595 114.793 103.481 114.793H86.7107C80.9285 114.793 75.3831 112.496 71.2944 108.407C67.2058 104.318 64.9088 98.7729 64.9088 92.9907C64.9088 87.2085 67.2058 81.6631 71.2944 77.5745C75.3831 73.4858 80.9285 71.1889 86.7107 71.1889H88.3877V66.1577C88.3877 64.8233 88.9178 63.5436 89.8613 62.6001C90.8049 61.6565 92.0846 61.1265 93.4189 61.1265C94.7533 61.1265 96.033 61.6565 96.9765 62.6001C97.92 63.5436 98.4501 64.8233 98.4501 66.1577V71.1889H100.127C105.907 71.1955 111.449 73.4946 115.536 77.5818C119.623 81.669 121.922 87.2105 121.929 92.9907C121.929 94.3251 121.399 95.6048 120.455 96.5483C119.512 97.4918 118.232 98.0219 116.898 98.0219C115.563 98.0219 114.284 97.4918 113.34 96.5483C112.397 95.6048 111.867 94.3251 111.867 92.9907C111.867 89.8772 110.63 86.8912 108.428 84.6896C106.227 82.4881 103.241 81.2512 100.127 81.2512H86.7107C83.5972 81.2512 80.6112 82.4881 78.4096 84.6896C76.208 86.8912 74.9712 89.8772 74.9712 92.9907C74.9712 96.1042 76.208 99.0902 78.4096 101.292C80.6112 103.493 83.5972 104.73 86.7107 104.73H103.481C109.261 104.737 114.803 107.036 118.89 111.123C122.977 115.21 125.276 120.752 125.283 126.532Z"
        fill="#FF8686" />
</svg>
