<svg width="18" height="18" viewBox="0 0 18 18" fill="none" xmlns="http://www.w3.org/2000/svg">
<path d="M23.4475 18.605L19.4475 16.605C19.2901 16.5265 19.1147 16.491 18.9391 16.502C18.7636 16.5129 18.594 16.57 18.4475 16.6675L16.6113 17.8925C15.7683 17.4291 15.0747 16.7354 14.6113 15.8925L15.8363 14.0562C15.9337 13.9098 15.9908 13.7402 16.0018 13.5646C16.0128 13.3891 15.9772 13.2137 15.8988 13.0562L13.8988 9.05625C13.8159 8.88884 13.6877 8.748 13.5289 8.64968C13.3701 8.55137 13.1868 8.49952 13 8.5C11.6739 8.5 10.4022 9.02678 9.4645 9.96447C8.52681 10.9021 8.00003 12.1739 8.00003 13.5C8.00334 16.4164 9.16333 19.2123 11.2255 21.2745C13.2877 23.3367 16.0837 24.4967 19 24.5C19.6566 24.5 20.3068 24.3707 20.9134 24.1194C21.5201 23.8681 22.0713 23.4998 22.5356 23.0355C22.9999 22.5712 23.3682 22.02 23.6194 21.4134C23.8707 20.8068 24 20.1566 24 19.5C24.0002 19.3142 23.9485 19.1321 23.851 18.974C23.7534 18.8159 23.6137 18.6881 23.4475 18.605ZM19 22.5C16.6139 22.4974 14.3262 21.5483 12.639 19.861C10.9517 18.1738 10.0027 15.8861 10 13.5C9.99984 12.8064 10.24 12.1342 10.6796 11.5977C11.1192 11.0612 11.7312 10.6936 12.4113 10.5575L13.8463 13.4325L12.625 15.25C12.5338 15.3869 12.4777 15.5442 12.4618 15.7079C12.4459 15.8717 12.4706 16.0368 12.5338 16.1888C13.2493 17.8892 14.602 19.242 16.3025 19.9575C16.4549 20.0235 16.6213 20.0505 16.7867 20.0361C16.9521 20.0217 17.1114 19.9663 17.25 19.875L19.0763 18.6575L21.9513 20.0925C21.8141 20.7734 21.4449 21.3856 20.9067 21.8247C20.3685 22.2637 19.6946 22.5024 19 22.5ZM16 3.5C13.7556 3.49951 11.5493 4.08011 9.59585 5.18529C7.64239 6.29046 6.00834 7.88256 4.85274 9.80662C3.69715 11.7307 3.05938 13.9212 3.00151 16.1648C2.94365 18.4085 3.46765 20.6289 4.52253 22.61L3.10378 26.8662C2.98626 27.2186 2.96921 27.5968 3.05453 27.9583C3.13985 28.3199 3.32417 28.6505 3.58684 28.9132C3.84951 29.1759 4.18015 29.3602 4.54169 29.4455C4.90323 29.5308 5.28139 29.5138 5.63378 29.3962L9.89003 27.9775C11.6335 28.9048 13.5653 29.4228 15.5388 29.492C17.5123 29.5613 19.4757 29.18 21.2799 28.3772C23.084 27.5743 24.6816 26.371 25.9513 24.8586C27.221 23.3462 28.1294 21.5644 28.6077 19.6484C29.0859 17.7325 29.1214 15.7328 28.7114 13.801C28.3015 11.8693 27.4568 10.0564 26.2416 8.4999C25.0263 6.94337 23.4725 5.68415 21.6979 4.81782C19.9234 3.95149 17.9748 3.50081 16 3.5ZM16 27.5C14.0663 27.5013 12.1664 26.9921 10.4925 26.0238C10.37 25.9527 10.2337 25.9085 10.0928 25.894C9.95185 25.8796 9.80945 25.8953 9.67503 25.94L5.00003 27.5L6.55878 22.825C6.60371 22.6907 6.61959 22.5483 6.60537 22.4074C6.59115 22.2665 6.54715 22.1301 6.47628 22.0075C5.26374 19.9111 4.77692 17.4732 5.09132 15.072C5.40572 12.6707 6.50377 10.4403 8.21514 8.72674C9.92651 7.01321 12.1555 5.91234 14.5564 5.5949C16.9573 5.27747 19.3958 5.76122 21.4937 6.97111C23.5916 8.18099 25.2316 10.0494 26.1592 12.2864C27.0869 14.5235 27.2504 17.0042 26.6243 19.3436C25.9983 21.6831 24.6177 23.7505 22.6967 25.2253C20.7757 26.7 18.4218 27.4996 16 27.5Z" fill="#25D366"/>
</svg>
